<?xml version="1.0" encoding="utf-8"?>
<!DOCTYPE svg PUBLIC "-//W3C//DTD SVG 1.1//EN" "http://www.w3.org/Graphics/SVG/1.1/DTD/svg11.dtd">
<svg version="1.1" id="Layer_1" xmlns="http://www.w3.org/2000/svg" xmlns:xlink="http://www.w3.org/1999/xlink" x="0px" y="0px"
	 viewBox="0 0 360 500" style="enable-background:new 0 0 360 500;" xml:space="preserve">
<style type="text/css">
	.st0{fill:#FFFFFF;stroke:#000000;stroke-width:13.845;stroke-linecap:round;stroke-linejoin:round;}
	.st1{fill:none;stroke:#000000;stroke-width:13.845;stroke-linecap:round;stroke-linejoin:round;}
	.st2{fill:#FF4500;}
</style>
<path class="st0" d="M113.2,454.3c-21.1,0-38.2,13.9-38.2,31c0,2.7,0.6,5.3,1.4,7.7h73.8c0.8-2.5,1.4-5,1.4-7.7
	C151.4,468.2,134.3,454.3,113.2,454.3z"/>
<path class="st0" d="M246.5,454.3c-21.1,0-38.2,13.9-38.2,31c0,2.7,0.6,5.3,1.4,7.7h73.8c0.8-2.5,1.4-5,1.4-7.7
	C284.7,468.2,267.6,454.3,246.5,454.3z"/>
<ellipse class="st0" cx="236.8" cy="356.3" rx="55.5" ry="67"/>
<ellipse class="st0" cx="122.3" cy="356.3" rx="55.5" ry="67"/>
<line id="line22098_1_" class="st1" x1="138.7" y1="493.1" x2="221.8" y2="493.1"/>
<circle class="st0" cx="319.1" cy="147.6" r="34"/>
<circle class="st0" cx="40.9" cy="147.6" r="34"/>
<path class="st0" d="M179.3,179.5c-42.5,0-77,71.3-77,159.3c0,74.5,24.8,136.9,58.2,154.3h37.6c33.4-17.4,58.2-79.8,58.2-154.3
	C256.3,250.8,221.8,179.5,179.3,179.5z"/>
<polyline class="st1" points="274.3,28.2 206.3,12.2 181.3,91.2 "/>
<circle class="st0" cx="302" cy="33.7" r="26.8"/>
<ellipse class="st0" cx="179.3" cy="194.4" rx="154" ry="100.5"/>
<path class="st1" d="M126.8,240.6c13.4,13.4,35.3,16,53.2,16c18,0,39.8-2.6,53.2-16"/>
<circle class="st2" cx="125.8" cy="174.8" r="25"/>
<circle class="st2" cx="234.4" cy="174.8" r="25"/>
</svg>