<?xml version="1.0" encoding="utf-8"?>
<!DOCTYPE svg PUBLIC "-//W3C//DTD SVG 1.1//EN" "http://www.w3.org/Graphics/SVG/1.1/DTD/svg11.dtd">
<svg version="1.1" id="Layer_1" xmlns="http://www.w3.org/2000/svg" xmlns:xlink="http://www.w3.org/1999/xlink" x="0px" y="0px"
	 viewBox="0 0 120 40" style="enable-background:new 0 0 120 40;" xml:space="preserve">
<style type="text/css">
	.st0{fill:#FFFFFF;stroke:#000000;stroke-width:1.1;stroke-linecap:round;stroke-linejoin:round;}
	.st1{fill:none;stroke:#000000;stroke-width:1.1;stroke-linecap:round;stroke-linejoin:round;}
	.st2{fill:#FF4500;}
	.st3{fill:#FFFFFF;stroke:#000000;stroke-width:1.6;stroke-linecap:round;stroke-linejoin:round;}
</style>
<path class="st0" d="M11.5,36.4c-1.7,0-3,1.1-3,2.5c0,0.2,0,0.4,0.1,0.6h5.9c0.1-0.2,0.1-0.4,0.1-0.6C14.6,37.5,13.2,36.4,11.5,36.4
	z"/>
<path class="st0" d="M22.1,36.4c-1.7,0-3,1.1-3,2.5c0,0.2,0,0.4,0.1,0.6h5.9c0.1-0.2,0.1-0.4,0.1-0.6C25.2,37.5,23.8,36.4,22.1,36.4
	z"/>
<ellipse class="st0" cx="21.3" cy="28.6" rx="4.4" ry="5.3"/>
<ellipse class="st0" cx="12.2" cy="28.6" rx="4.4" ry="5.3"/>
<line id="line22098_1_" class="st1" x1="13.6" y1="39.5" x2="20.2" y2="39.5"/>
<circle class="st0" cx="27.9" cy="12" r="2.7"/>
<circle class="st0" cx="5.8" cy="12" r="2.7"/>
<path class="st0" d="M16.8,14.5c-3.4,0-6.1,5.7-6.1,12.7c0,5.9,2,10.9,4.6,12.3h3c2.7-1.4,4.6-6.3,4.6-12.3
	C22.9,20.2,20.2,14.5,16.8,14.5z"/>
<polyline class="st1" points="24.3,2.5 18.9,1.3 16.9,7.5 "/>
<circle class="st0" cx="26.5" cy="3" r="2.1"/>
<ellipse class="st0" cx="16.8" cy="15.7" rx="12.2" ry="8"/>
<path class="st1" d="M12.6,19.4c1.1,1.1,2.8,1.3,4.2,1.3c1.4,0,3.2-0.2,4.2-1.3"/>
<circle class="st2" cx="12.5" cy="14.2" r="2"/>
<circle class="st2" cx="21.2" cy="14.2" r="2"/>
<path d="M44.7,22.3c-0.4-0.3-0.8-0.5-1.3-0.5c0,0,0,0,0,0c-0.8,0-1.6,0.4-2.3,1c-0.5,0.4-0.9,0.8-1.2,1.3v-0.5c0-0.5-0.2-1-0.5-1.3
	c-0.7-0.6-1.7-0.6-2.4,0c-0.3,0.3-0.5,0.7-0.5,1.3v14.5c0,0.6,0.2,1,0.5,1.3c0.3,0.3,0.7,0.5,1.2,0.5c0.5,0,0.9-0.2,1.2-0.5
	c0.3-0.3,0.5-0.7,0.5-1.3v-8.3c0-1.9,0.7-3.2,2.1-4c0.1-0.1,0.4-0.2,1.2-0.4c0.7-0.2,1.2-0.4,1.5-0.6c0.4-0.3,0.6-0.7,0.6-1.3
	C45.3,23,45.1,22.6,44.7,22.3z"/>
<path d="M59.4,34.6c-0.3,0-0.7,0.2-1.3,0.6c-1.3,1.1-2.8,1.7-4.4,1.7c-0.9,0-1.7-0.2-2.5-0.5c-0.7-0.4-1.3-0.9-1.7-1.6
	c-0.4-0.7-0.6-1.5-0.7-2.4h10.3c1.2,0,1.9-0.6,1.9-1.7c0-1.5-0.3-2.9-1-4.2c-0.6-1.4-1.6-2.5-2.7-3.3c-1.2-0.8-2.6-1.2-4.1-1.2
	c-1.6,0-3,0.5-4.1,1.3c-1.2,0.8-2.1,2-2.7,3.3c-0.6,1.3-1,2.8-1,4.2c0,0,0,0,0,0.1l0,0.1l0,0.1c0,1.1,0.2,2.1,0.5,3.1
	c0.3,1,0.8,2,1.4,2.9c0.7,0.9,1.5,1.6,2.6,2.2c1.1,0.5,2.3,0.8,3.8,0.8c1.4,0,2.7-0.3,3.8-0.8c1.2-0.5,2.1-1.1,2.8-1.8
	c0.3-0.4,0.5-0.8,0.5-1.2c0-0.4-0.1-0.7-0.3-1C60.1,34.7,59.8,34.6,59.4,34.6z M57.6,29.5h-8.8c0.1-1.4,0.5-2.6,1.3-3.4
	c0.8-0.9,1.9-1.3,3.2-1.3c1.3,0,2.3,0.5,3.1,1.4C57.1,27,57.5,28.1,57.6,29.5z"/>
<path d="M77.2,14.7c-0.6-0.6-1.7-0.6-2.4,0c-0.3,0.3-0.5,0.7-0.5,1.3v7.7c-1.2-1.2-2.6-1.9-4.4-1.9c-1.1,0-2.1,0.2-3.1,0.7
	c-0.9,0.5-1.7,1.1-2.4,2c-0.7,0.8-1.2,1.8-1.5,2.9c-0.4,1.1-0.5,2.3-0.5,3.5c0,1.7,0.4,3.3,1,4.6c0.7,1.4,1.6,2.4,2.8,3.2
	c1.2,0.8,2.6,1.2,4.1,1.2c1.2,0,2.2-0.3,2.9-0.8c0.4-0.3,0.8-0.6,1.1-0.9v0c0,0.5,0.2,0.9,0.5,1.2c0.3,0.3,0.7,0.5,1.2,0.5
	c0.5,0,0.9-0.2,1.2-0.5c0.3-0.3,0.5-0.7,0.5-1.3V16C77.7,15.5,77.5,15,77.2,14.7z M74,27.7c0.4,0.9,0.6,2,0.6,3.2
	c0,1.1-0.2,2-0.5,2.9c-0.3,0.9-0.8,1.6-1.5,2.2c-0.7,0.6-1.6,0.9-2.7,0.9c-1.4-0.1-2.4-0.6-3.1-1.8c-0.7-1.2-1.1-2.6-1.1-4.3
	c0-1,0.2-2,0.5-2.9c0.3-0.9,0.8-1.6,1.5-2.2c0.6-0.6,1.5-0.9,2.5-0.9c0.8,0,1.6,0.2,2.2,0.7C73.1,26,73.7,26.8,74,27.7z"/>
<path d="M95.1,14.7c-0.3-0.3-0.7-0.5-1.2-0.5c-0.4,0-0.8,0.2-1.2,0.5c-0.3,0.3-0.5,0.7-0.5,1.3v7.7c-1.2-1.2-2.6-1.9-4.4-1.9
	c-1.1,0-2.1,0.2-3.1,0.7c-0.9,0.5-1.7,1.1-2.4,2c-0.7,0.8-1.2,1.8-1.5,2.9c-0.4,1.1-0.5,2.3-0.5,3.5c0,1.7,0.4,3.3,1,4.6
	c0.6,1.4,1.6,2.4,2.8,3.2c1.2,0.8,2.6,1.2,4.1,1.2c1.2,0,2.2-0.3,2.9-0.8c0.4-0.3,0.8-0.6,1.1-0.9v0c0,0.5,0.2,0.9,0.5,1.2
	c0.3,0.3,0.7,0.5,1.2,0.5c0.5,0,0.9-0.2,1.2-0.5c0.3-0.3,0.5-0.7,0.5-1.3V16C95.6,15.5,95.4,15,95.1,14.7z M92.5,30.8
	c0,1-0.2,2-0.5,2.9c-0.3,0.9-0.8,1.6-1.5,2.2c-0.7,0.6-1.6,0.9-2.7,0.9c-1.4-0.1-2.4-0.6-3.1-1.8c-0.7-1.2-1.1-2.6-1.1-4.3
	c0-1,0.2-2,0.5-2.9c0.3-0.9,0.8-1.6,1.5-2.2c0.6-0.6,1.5-0.9,2.5-0.9c0.8,0,1.6,0.2,2.2,0.7c0.7,0.5,1.2,1.2,1.6,2.1
	C92.3,28.6,92.5,29.7,92.5,30.8z"/>
<path d="M100.6,39.9c-0.9,0-1.7-0.8-1.7-1.7V23.4c0-0.9,0.8-1.7,1.7-1.7s1.7,0.8,1.7,1.7v14.8C102.2,39.2,101.5,39.9,100.6,39.9z"/>
<circle class="st3" cx="100.6" cy="17.5" r="2.3"/>
<path d="M113,22.4c-0.3-0.3-0.7-0.4-1.2-0.4h-0.9v-3.4c0-0.5-0.2-1-0.5-1.3c-0.6-0.5-1.7-0.6-2.4,0c-0.3,0.3-0.5,0.7-0.5,1.2V22
	h-0.9c-1,0-1.6,0.5-1.7,1.6c0.1,0.4,0.2,0.7,0.5,1c0.3,0.3,0.7,0.4,1.2,0.4h0.9v13.1c0,0.5,0.2,1,0.5,1.3c0.3,0.3,0.7,0.5,1.1,0.5
	c0.5,0,0.9-0.1,1.3-0.4c0.4-0.3,0.5-0.7,0.5-1.2V25h1.1c0.4,0,0.8-0.2,1.1-0.4c0.3-0.3,0.4-0.6,0.4-1
	C113.4,23.1,113.3,22.7,113,22.4z"/>
</svg>