<?xml version="1.0" encoding="UTF-8" standalone="no"?>
<!-- Generator: Adobe Illustrator 13.0.1, SVG Export Plug-In . SVG Version: 6.00 Build 14948)  -->

<svg
   xmlns:dc="http://purl.org/dc/elements/1.1/"
   xmlns:cc="http://creativecommons.org/ns#"
   xmlns:rdf="http://www.w3.org/1999/02/22-rdf-syntax-ns#"
   xmlns:svg="http://www.w3.org/2000/svg"
   xmlns="http://www.w3.org/2000/svg"
   xmlns:sodipodi="http://sodipodi.sourceforge.net/DTD/sodipodi-0.dtd"
   xmlns:inkscape="http://www.inkscape.org/namespaces/inkscape"
   version="1.1"
   x="0px"
   y="0px"
   width="120px"
   height="40px"
   viewBox="0 0 120 40"
   enable-background="new 0 0 120 40"
   xml:space="preserve"
   id="svg22048"
   inkscape:version="0.48.3.1 r9886"
   sodipodi:docname="reddit-logo.svg"><metadata
   id="metadata22130"><rdf:RDF><cc:Work
       rdf:about=""><dc:format>image/svg+xml</dc:format><dc:type
         rdf:resource="http://purl.org/dc/dcmitype/StillImage" /></cc:Work></rdf:RDF></metadata><defs
   id="defs22128">
	
	
	
	
	
	
	
	
	
	
	
	
		
	
	
	
		
	
</defs><sodipodi:namedview
   pagecolor="#ffffff"
   bordercolor="#666666"
   borderopacity="1"
   objecttolerance="10"
   gridtolerance="10"
   guidetolerance="10"
   inkscape:pageopacity="0"
   inkscape:pageshadow="2"
   inkscape:window-width="1109"
   inkscape:window-height="857"
   id="namedview22126"
   showgrid="false"
   inkscape:zoom="10.8"
   inkscape:cx="24.896869"
   inkscape:cy="21.541432"
   inkscape:window-x="2377"
   inkscape:window-y="248"
   inkscape:window-maximized="0"
   inkscape:current-layer="svg22048" />
<g
   id="Layer_3">
</g>
<g
   id="g22218"><g
     id="g22100">
		<path
   d="m 36.688,23.585 c 0,-0.444 0.133,-0.797 0.401,-1.059 0.268,-0.26 0.592,-0.392 0.973,-0.392 0.389,0 0.721,0.128 0.994,0.383 0.274,0.259 0.411,0.612 0.411,1.067 v 1.441 h 0.063 c 0.421,-0.736 0.973,-1.401 1.66,-1.996 0.687,-0.594 1.407,-0.907 2.159,-0.938 0.422,0 0.794,0.141 1.12,0.416 0.326,0.277 0.491,0.62 0.491,1.032 0,0.481 -0.167,0.835 -0.502,1.062 -0.334,0.228 -0.819,0.423 -1.456,0.587 -0.637,0.166 -1.049,0.299 -1.238,0.403 -1.531,0.83 -2.296,2.251 -2.296,4.262 v 8.276 c 0,0.459 -0.128,0.815 -0.387,1.067 -0.258,0.253 -0.577,0.379 -0.957,0.379 -0.4,0 -0.74,-0.132 -1.018,-0.397 -0.279,-0.267 -0.417,-0.64 -0.417,-1.115 V 23.585 z"
   id="path22102"
   inkscape:connector-curvature="0"
   style="stroke:#000000;stroke-width:0.59850001" />
		<path
   d="m 45.666,30.681 c 0.062,-1.46 0.398,-2.843 1.004,-4.154 0.607,-1.309 1.473,-2.368 2.596,-3.184 1.123,-0.813 2.444,-1.229 3.962,-1.251 1.474,0 2.782,0.397 3.927,1.192 1.143,0.795 2.027,1.847 2.649,3.157 0.623,1.312 0.933,2.68 0.933,4.109 0,0.916 -0.523,1.375 -1.568,1.375 H 48.51 c 0.021,1.137 0.263,2.098 0.729,2.879 0.465,0.782 1.087,1.366 1.869,1.755 0.782,0.387 1.646,0.579 2.598,0.579 1.667,0 3.199,-0.589 4.593,-1.769 0.48,-0.347 0.833,-0.519 1.058,-0.519 0.314,0 0.558,0.116 0.733,0.35 0.176,0.233 0.262,0.516 0.262,0.846 0,0.357 -0.138,0.7 -0.414,1.029 -0.628,0.667 -1.52,1.25 -2.672,1.75 -1.153,0.5 -2.394,0.75 -3.723,0.75 -1.392,0 -2.602,-0.261 -3.628,-0.787 -1.028,-0.523 -1.855,-1.222 -2.483,-2.088 -0.628,-0.867 -1.086,-1.805 -1.374,-2.812 -0.288,-1.004 -0.439,-2.021 -0.455,-3.051 0.027,-0.052 0.043,-0.091 0.051,-0.113 0.008,-0.024 0.012,-0.036 0.012,-0.043 z m 2.844,-0.894 h 9.404 c -0.03,-1.569 -0.449,-2.826 -1.253,-3.781 -0.805,-0.953 -1.907,-1.446 -3.308,-1.478 -1.426,0 -2.573,0.463 -3.444,1.383 -0.869,0.922 -1.336,2.215 -1.399,3.876 z"
   id="path22104"
   inkscape:connector-curvature="0"
   style="stroke:#000000;stroke-width:0.59850001" />
		<path
   d="M 74.594,24.396 V 15.98 c 0,-0.44 0.137,-0.784 0.409,-1.035 0.274,-0.252 0.599,-0.377 0.969,-0.377 0.413,0 0.755,0.125 1.03,0.376 0.274,0.251 0.412,0.616 0.412,1.096 v 22.087 c 0,0.455 -0.142,0.809 -0.424,1.065 -0.281,0.256 -0.622,0.383 -1.019,0.383 -0.354,0 -0.674,-0.127 -0.956,-0.382 -0.281,-0.255 -0.422,-0.589 -0.422,-0.999 v -0.922 h -0.065 c -0.303,0.615 -0.798,1.142 -1.488,1.586 -0.688,0.442 -1.62,0.681 -2.793,0.717 -1.505,0 -2.828,-0.367 -3.963,-1.104 -1.137,-0.734 -2.017,-1.76 -2.645,-3.076 -0.624,-1.314 -0.948,-2.807 -0.975,-4.479 0,-1.195 0.174,-2.333 0.524,-3.413 0.351,-1.082 0.846,-2.024 1.483,-2.833 0.639,-0.805 1.404,-1.437 2.296,-1.893 0.892,-0.457 1.869,-0.687 2.933,-0.687 1.917,0 3.462,0.769 4.627,2.304 h 0.067 z m -9.108,6.388 c 0,1.734 0.374,3.213 1.124,4.436 0.747,1.223 1.865,1.863 3.348,1.919 1.183,0 2.14,-0.306 2.876,-0.921 0.73,-0.612 1.255,-1.393 1.567,-2.338 0.316,-0.945 0.484,-1.956 0.513,-3.032 0,-1.239 -0.2,-2.341 -0.603,-3.305 -0.4,-0.963 -0.959,-1.708 -1.672,-2.23 -0.716,-0.522 -1.522,-0.784 -2.425,-0.784 -1.063,0 -1.945,0.314 -2.65,0.936 -0.704,0.625 -1.221,1.411 -1.549,2.357 -0.326,0.945 -0.501,1.933 -0.529,2.962 z"
   id="path22106"
   inkscape:connector-curvature="0"
   style="stroke:#000000;stroke-width:0.59850001" />
		<path
   d="M 92.451,24.396 V 15.98 c 0,-0.44 0.138,-0.784 0.413,-1.035 0.274,-0.252 0.596,-0.377 0.967,-0.377 0.412,0 0.758,0.125 1.03,0.376 0.275,0.251 0.411,0.616 0.411,1.096 v 22.087 c 0,0.455 -0.141,0.809 -0.422,1.065 -0.282,0.256 -0.624,0.383 -1.02,0.383 -0.354,0 -0.674,-0.127 -0.955,-0.382 -0.282,-0.255 -0.425,-0.589 -0.425,-0.999 v -0.922 h -0.062 c -0.304,0.615 -0.799,1.142 -1.488,1.586 -0.688,0.442 -1.619,0.681 -2.793,0.717 -1.506,0 -2.827,-0.367 -3.964,-1.104 -1.138,-0.734 -2.018,-1.76 -2.643,-3.076 -0.624,-1.314 -0.95,-2.807 -0.976,-4.479 0,-1.195 0.176,-2.333 0.525,-3.413 0.351,-1.082 0.844,-2.024 1.481,-2.833 0.64,-0.805 1.404,-1.437 2.296,-1.893 0.892,-0.457 1.869,-0.687 2.932,-0.687 1.918,0 3.462,0.769 4.629,2.304 h 0.064 z m -9.104,6.388 c 0,1.734 0.373,3.213 1.123,4.436 0.749,1.223 1.865,1.863 3.349,1.919 1.183,0 2.142,-0.306 2.872,-0.921 0.735,-0.612 1.258,-1.393 1.571,-2.338 0.314,-0.945 0.485,-1.956 0.512,-3.032 0,-1.239 -0.2,-2.341 -0.601,-3.305 -0.4,-0.963 -0.959,-1.708 -1.673,-2.23 -0.716,-0.522 -1.523,-0.784 -2.424,-0.784 -1.064,0 -1.948,0.314 -2.652,0.936 -0.705,0.625 -1.219,1.411 -1.547,2.357 -0.328,0.945 -0.504,1.933 -0.53,2.962 z"
   id="path22108"
   inkscape:connector-curvature="0"
   style="stroke:#000000;stroke-width:0.59850001" />
		<path
   d="m 107.747,24.7 h -1.245 c -0.399,0 -0.721,-0.114 -0.963,-0.341 -0.24,-0.228 -0.379,-0.509 -0.421,-0.843 0.083,-0.836 0.545,-1.254 1.384,-1.254 h 1.245 v -3.815 c 0,-0.416 0.134,-0.739 0.4,-0.969 0.267,-0.229 0.591,-0.343 0.978,-0.343 0.41,0 0.755,0.116 1.031,0.348 0.274,0.232 0.415,0.577 0.415,1.035 v 3.744 h 1.243 c 0.429,0 0.755,0.115 0.979,0.345 0.225,0.229 0.338,0.531 0.338,0.909 0,0.319 -0.112,0.596 -0.329,0.83 -0.221,0.234 -0.504,0.354 -0.854,0.354 h -1.377 v 13.488 c 0,0.429 -0.149,0.768 -0.443,1.017 -0.293,0.248 -0.65,0.371 -1.064,0.371 -0.37,0 -0.686,-0.123 -0.936,-0.371 -0.252,-0.249 -0.381,-0.608 -0.381,-1.078 V 24.7 z"
   id="path22110"
   inkscape:connector-curvature="0"
   style="stroke:#000000;stroke-width:0.59850001" />
	</g><circle
     cx="100.552"
     cy="17.490999"
     r="2.309"
     id="circle22112"
     d="m 102.861,17.490999 c 0,1.275226 -1.03377,2.309 -2.309,2.309 -1.275224,0 -2.308998,-1.033774 -2.308998,-2.309 0,-1.275225 1.033774,-2.309 2.308998,-2.309 1.27523,0 2.309,1.033775 2.309,2.309 z"
     sodipodi:cx="100.552"
     sodipodi:cy="17.490999"
     sodipodi:rx="2.309"
     sodipodi:ry="2.309"
     style="fill:#ffffff;stroke:#000000;stroke-width:1.60000002" /><line
     x1="100.556"
     y1="23.433001"
     x2="100.556"
     y2="38.224998"
     id="line22114"
     style="fill:none;stroke:#000000;stroke-width:3.36019993;stroke-linecap:round" /></g><g
   id="g22188"><ellipse
     cx="21.348"
     cy="28.597"
     rx="4.4120002"
     ry="5.3239999"
     id="ellipse22054"
     d="m 25.76,28.597 c 0,2.940364 -1.97532,5.324 -4.412,5.324 -2.436681,0 -4.412001,-2.383636 -4.412001,-5.324 0,-2.940364 1.97532,-5.324 4.412001,-5.324 2.43668,0 4.412,2.383636 4.412,5.324 z"
     sodipodi:cx="21.348"
     sodipodi:cy="28.597"
     sodipodi:rx="4.4120002"
     sodipodi:ry="5.3239999"
     style="fill:#ffffff;stroke:#000000;stroke-width:1.10000002" /><g
     id="g22056">
		<g
   id="g22058">
			<path
   d="m 14.406,39.464 c 0.063,-0.197 0.108,-0.401 0.108,-0.615 0,-1.36 -1.361,-2.464 -3.04,-2.464 -1.679,0 -3.039,1.104 -3.039,2.464 0,0.214 0.044,0.418 0.108,0.615 h 5.863 z"
   id="path22060"
   inkscape:connector-curvature="0"
   style="fill:#ffffff" />
		</g>
		<g
   id="g22062">
			<path
   d="m 14.406,39.464 c 0.063,-0.197 0.108,-0.401 0.108,-0.615 0,-1.36 -1.361,-2.464 -3.04,-2.464 -1.679,0 -3.039,1.104 -3.039,2.464 0,0.214 0.044,0.418 0.108,0.615 h 5.863 z"
   id="path22064"
   inkscape:connector-curvature="0"
   style="fill:none;stroke:#000000;stroke-width:1.10000002;stroke-linecap:round;stroke-linejoin:round" />
		</g>
	</g><g
     id="g22066">
		<g
   id="g22068">
			<path
   d="m 25.052,39.464 c 0.063,-0.197 0.107,-0.401 0.107,-0.615 0,-1.36 -1.361,-2.464 -3.041,-2.464 -1.679,0 -3.039,1.104 -3.039,2.464 0,0.214 0.043,0.418 0.107,0.615 h 5.866 z"
   id="path22070"
   inkscape:connector-curvature="0"
   style="fill:#ffffff" />
		</g>
		<g
   id="g22072">
			<path
   d="m 25.052,39.464 c 0.063,-0.197 0.107,-0.401 0.107,-0.615 0,-1.36 -1.361,-2.464 -3.041,-2.464 -1.679,0 -3.039,1.104 -3.039,2.464 0,0.214 0.043,0.418 0.107,0.615 h 5.866 z"
   id="path22074"
   inkscape:connector-curvature="0"
   style="fill:none;stroke:#000000;stroke-width:1.10000002;stroke-linecap:round;stroke-linejoin:round" />
		</g>
	</g><circle
     cx="5.7870002"
     cy="12.014"
     r="2.7019999"
     id="circle22076"
     d="m 8.4890001,12.014 c 0,1.492273 -1.2097266,2.702 -2.7019999,2.702 -1.4922734,0 -2.7019999,-1.209727 -2.7019999,-2.702 0,-1.492273 1.2097265,-2.702 2.7019999,-2.702 1.4922733,0 2.7019999,1.209727 2.7019999,2.702 z"
     sodipodi:cx="5.7870002"
     sodipodi:cy="12.014"
     sodipodi:rx="2.7019999"
     sodipodi:ry="2.7019999"
     style="fill:#ffffff;stroke:#000000;stroke-width:1.10000002" /><circle
     cx="27.889"
     cy="12.014"
     r="2.7019999"
     id="circle22078"
     d="m 30.591,12.014 c 0,1.492273 -1.209727,2.702 -2.702,2.702 -1.492273,0 -2.702,-1.209727 -2.702,-2.702 0,-1.492273 1.209727,-2.702 2.702,-2.702 1.492273,0 2.702,1.209727 2.702,2.702 z"
     sodipodi:cx="27.889"
     sodipodi:cy="12.014"
     sodipodi:rx="2.7019999"
     sodipodi:ry="2.7019999"
     style="fill:#ffffff;stroke:#000000;stroke-width:1.10000002" /><path
     d="m 24.329,2.53 c 0,0 0,0 -5.404,-1.272 l -1.986,6.278"
     id="path22080"
     inkscape:connector-curvature="0"
     style="fill:none;stroke:#000000;stroke-width:1.10000002;stroke-linecap:round;stroke-linejoin:round" /><ellipse
     cx="12.25"
     cy="28.597"
     rx="4.4109998"
     ry="5.3239999"
     id="ellipse22082"
     d="m 16.661,28.597 c 0,2.940364 -1.974872,5.324 -4.411,5.324 -2.4361279,0 -4.4109998,-2.383636 -4.4109998,-5.324 0,-2.940364 1.9748719,-5.324 4.4109998,-5.324 2.436128,0 4.411,2.383636 4.411,5.324 z"
     sodipodi:cx="12.25"
     sodipodi:cy="28.597"
     sodipodi:rx="4.4109998"
     sodipodi:ry="5.3239999"
     style="fill:#ffffff;stroke:#000000;stroke-width:1.10000002" /><circle
     cx="26.534"
     cy="2.967"
     r="2.1300001"
     id="circle22084"
     d="m 28.664001,2.967 c 0,1.1763666 -0.953634,2.1300001 -2.130001,2.1300001 -1.176366,0 -2.13,-0.9536335 -2.13,-2.1300001 0,-1.1763666 0.953634,-2.13000011 2.13,-2.13000011 1.176367,0 2.130001,0.95363351 2.130001,2.13000011 z"
     sodipodi:cx="26.534"
     sodipodi:cy="2.967"
     sodipodi:rx="2.1300001"
     sodipodi:ry="2.1300001"
     style="fill:#ffffff;stroke:#000000;stroke-width:1.10000002" /><g
     id="g22086">
		<g
   id="g22088">
			<path
   d="m 15.284,39.467 h 2.99 c 2.656,-1.382 4.624,-6.34 4.624,-12.261 0,-6.99 -2.74,-12.656 -6.119,-12.656 -3.38,0 -6.119,5.666 -6.119,12.656 0,5.921 1.968,10.879 4.624,12.261 z"
   id="path22090"
   inkscape:connector-curvature="0"
   style="fill:#ffffff" />
		</g>
		<g
   id="g22092">
			<path
   d="m 15.284,39.467 h 2.99 c 2.656,-1.382 4.624,-6.34 4.624,-12.261 0,-6.99 -2.74,-12.656 -6.119,-12.656 -3.38,0 -6.119,5.666 -6.119,12.656 0,5.921 1.968,10.879 4.624,12.261 z"
   id="path22094"
   inkscape:connector-curvature="0"
   style="fill:none;stroke:#000000;stroke-width:1.10000002" />
		</g>
	</g><ellipse
     cx="16.778999"
     cy="15.73"
     rx="12.239"
     ry="7.9860001"
     id="ellipse22096"
     d="m 29.018,15.73 c 0,4.410546 -5.479587,7.986 -12.239001,7.986 -6.759413,0 -12.239,-3.575454 -12.239,-7.986 0,-4.410547 5.479587,-7.9860005 12.239,-7.9860005 6.759414,0 12.239001,3.5754535 12.239001,7.9860005 z"
     sodipodi:cx="16.778999"
     sodipodi:cy="15.73"
     sodipodi:rx="12.239"
     sodipodi:ry="7.9860001"
     style="fill:#ffffff;stroke:#000000;stroke-width:1.10000002" /><line
     x1="13.56"
     y1="39.464001"
     x2="20.156"
     y2="39.464001"
     id="line22098"
     style="fill:none;stroke:#000000;stroke-width:1.10000002;stroke-linecap:round;stroke-linejoin:round" /><g
     id="g22116">
		<path
   style="fill:#ff4500;stroke:none;stroke-width:1.10000001999999997"
   d="M 12.53125 12.1875 C 11.444241 12.1875 10.5625 13.06924 10.5625 14.15625 C 10.5625 15.243259 11.444241 16.15625 12.53125 16.15625 C 13.618259 16.15625 14.5 15.243259 14.5 14.15625 C 14.5 13.06924 13.618259 12.1875 12.53125 12.1875 z "
   id="circle22118" />
		<path
   style="fill:#ff4500;stroke:none;stroke-width:1.10000001999999997"
   d="M 21.15625 12.1875 C 20.069241 12.1875 19.1875 13.06924 19.1875 14.15625 C 19.1875 15.243259 20.069241 16.15625 21.15625 16.15625 C 22.243259 16.15625 23.125 15.243259 23.125 14.15625 C 23.125 13.06924 22.243259 12.1875 21.15625 12.1875 z "
   id="circle22120" />
		<path
   d="m 12.61,19.407 c 1.066,1.066 2.786,1.271 4.212,1.271"
   id="path22122"
   inkscape:connector-curvature="0"
   style="fill:none;stroke:#000000;stroke-width:1.10000002;stroke-linecap:round" />
		<path
   d="m 21.065,19.407 c -1.067,1.066 -2.785,1.271 -4.212,1.271"
   id="path22124"
   inkscape:connector-curvature="0"
   style="fill:none;stroke:#000000;stroke-width:1.10000002;stroke-linecap:round" />
	</g></g>
</svg>